<?xml version="1.0" standalone="no"?>
<svg version="1.0" xmlns="http://www.w3.org/2000/svg"
width="96.000000pt" height="96.000000pt" viewBox="0 0 96.000000 96.000000"
preserveAspectRatio="xMidYMid meet">

<g transform="translate(0.000000,96.000000) scale(0.100000,-0.100000)" stroke="none">
<path d="M517 883 c-3 -5 -15 -42 -27 -83 -15 -52 -35 -92 -66 -132 l-44 -56
0 -241 0 -240 38 -10 c71 -19 191 -41 219 -41 45 0 106 41 128 85 11 22 33 99
49 172 26 115 28 135 16 163 -19 46 -55 60 -155 60 -47 0 -85 1 -85 3 0 1 9
36 20 77 31 117 25 177 -22 228 -21 21 -62 30 -71 15z"/>
<path d="M145 555 c-25 -24 -25 -25 -25 -225 0 -200 0 -201 25 -225 35 -36
135 -36 170 0 l25 24 0 226 0 225 -85 0 c-78 0 -88 -2 -110 -25z"/>
</g>
</svg>