<?xml version="1.0" standalone="no"?>
<!DOCTYPE svg PUBLIC "-//W3C//DTD SVG 20010904//EN"
 "http://www.w3.org/TR/2001/REC-SVG-20010904/DTD/svg10.dtd">
<svg version="1.0" xmlns="http://www.w3.org/2000/svg"
 width="84.000000pt" height="84.000000pt" viewBox="0 0 84.000000 84.000000"
 preserveAspectRatio="xMidYMid meet" fill="#445fff">
<metadata>
Created by potrace 1.16, written by Peter Selinger 2001-2019
</metadata>
<g transform="translate(0.000000,84.000000) scale(0.100000,-0.100000)" stroke="none">
<path d="M400 636 c0 -73 -3 -87 -25 -117 -84 -115 -79 -105 -83 -213 -5 -122
5 -151 55 -173 56 -25 249 -25 286 0 15 9 27 25 27 35 0 9 10 23 21 30 17 11
20 20 16 46 -4 25 0 37 14 49 23 20 25 50 4 67 -11 9 -14 23 -9 46 8 43 -18
60 -119 76 l-78 12 6 51 c12 95 -29 175 -91 175 -23 0 -24 -2 -24 -84z"/>
<path d="M131 393 c-20 -43 -25 -200 -9 -253 14 -44 14 -45 61 -48 l48 -3 -3
163 -3 163 -41 3 c-36 3 -42 0 -53 -25z"/>
</g>
</svg>
